<svg width="20" height="20" viewBox="0 0 20 20" fill="none" xmlns="http://www.w3.org/2000/svg">
<path fill-rule="evenodd" clip-rule="evenodd" d="M17 0C18.5949 0 19.9035 1.25157 19.9949 2.82401L20 3V13C20 14.5949 18.7484 15.9035 17.176 15.9949L17 16H13.5L10.8 19.6C10.611 19.852 10.315 20 10 20C9.72437 20 9.4633 19.8867 9.27572 19.6895L9.2 19.6L6.5 16H3C1.40507 16 0.0965357 14.7484 0.00510323 13.176L0 13V3C0 1.40507 1.25157 0.0965357 2.82401 0.00510323L3 0H17ZM17 2H3C2.48836 2 2.06466 2.38715 2.00675 2.88362L2 3V13C2 13.5116 2.38715 13.9353 2.88362 13.9933L3 14H7C7.27563 14 7.5367 14.1133 7.72428 14.3105L7.8 14.4L10 17.333L12.2 14.4C12.3654 14.1795 12.6127 14.0386 12.8829 14.0069L13 14H17C17.5116 14 17.9353 13.6129 17.9933 13.1164L18 13V3C18 2.48836 17.6129 2.06466 17.1164 2.00675L17 2ZM15 9C15.552 9 16 9.448 16 10C16 10.5126 15.6137 10.9355 15.1166 10.9933L15 11H5C4.448 11 4 10.552 4 10C4 9.48743 4.38629 9.06453 4.88343 9.00673L5 9H15ZM15 5C15.552 5 16 5.448 16 6C16 6.51257 15.6137 6.93547 15.1166 6.99327L15 7H5C4.448 7 4 6.552 4 6C4 5.48743 4.38629 5.06453 4.88343 5.00673L5 5H15Z" fill="black"/>
</svg>
