<svg xmlns="http://www.w3.org/2000/svg" width="23.984" height="24" viewBox="0 0 23.984 24">
  <path id="Shape" d="M17.28,24H6.685A3.6,3.6,0,0,1,3.09,20.612L2.21,5.64H1.2a1.2,1.2,0,1,1,0-2.4H6.8L7.6.821A1.2,1.2,0,0,1,8.742,0h6.481a1.2,1.2,0,0,1,1.14.821l.806,2.419h5.616a1.2,1.2,0,1,1,0,2.4H21.755l-.88,14.972A3.6,3.6,0,0,1,17.28,24ZM4.614,5.64,5.487,20.47a1.2,1.2,0,0,0,1.2,1.13h10.6a1.2,1.2,0,0,0,1.2-1.13L19.351,5.64ZM9.607,2.4l-.28.84h5.311l-.28-.84Zm5.077,16.2-.076,0a1.2,1.2,0,0,1-1.123-1.272l.54-8.64a1.2,1.2,0,0,1,1.2-1.126l.076,0A1.2,1.2,0,0,1,16.42,8.834l-.54,8.64A1.2,1.2,0,0,1,14.684,18.6Zm-5.4,0a1.2,1.2,0,0,1-1.2-1.126l-.54-8.64A1.2,1.2,0,0,1,8.667,7.562l.076,0a1.2,1.2,0,0,1,1.2,1.126l.54,8.64A1.2,1.2,0,0,1,9.357,18.6Z" fill="#fc5a5a"/>
</svg>
