<svg xmlns="http://www.w3.org/2000/svg" xmlns:xlink="http://www.w3.org/1999/xlink" width="28" height="33" viewBox="0 0 28 33">
  <defs>
    <clipPath id="clip-path">
      <rect width="28" height="33" fill="none"/>
    </clipPath>
  </defs>
  <g id="Repeat_Grid_38" data-name="Repeat Grid 38" clip-path="url(#clip-path)">
    <g transform="translate(-22.685 -18.585)">
      <g id="vuesax_outline_export" data-name="vuesax/outline/export" transform="translate(22.685 18.585)">
        <rect id="vuesax_outline_export-2" data-name="vuesax/outline/export" width="28" height="33" fill="none"/>
        <g id="vuesax_outline_export-3" data-name="vuesax/outline/export">
          <g id="export">
            <path id="Vector" d="M.623,8.081A.618.618,0,0,1,.181,7.9a.629.629,0,0,1,0-.883L7.015.181a.625.625,0,0,1,.883.883L1.065,7.9a.618.618,0,0,1-.442.183Z" transform="translate(18.21 1.71)" fill="#fff"/>
            <path id="Vector-2" data-name="Vector" d="M4.625,5.25A.63.63,0,0,1,4,4.625V1.25H.625A.63.63,0,0,1,0,.625.63.63,0,0,1,.625,0h4A.63.63,0,0,1,5.25.625v4A.63.63,0,0,1,4.625,5.25Z" transform="translate(21.708 1.042)" fill="#fff"/>
            <path id="Vector-3" data-name="Vector" d="M16.575,30.917H9.342C2.8,30.917,0,27.581,0,19.772V11.144C0,3.336,2.8,0,9.342,0h2.411a1.01,1.01,0,0,1,.9,1.078,1.01,1.01,0,0,1-.9,1.078H9.342c-5.557,0-7.534,2.358-7.534,8.987v8.628c0,6.629,1.977,8.987,7.534,8.987h7.233c5.557,0,7.534-2.358,7.534-8.987V16.9a.918.918,0,1,1,1.808,0v2.876C25.917,27.581,23.12,30.917,16.575,30.917Z" transform="translate(1.042 1.042)" fill="#fff"/>
            <path id="Vector-4" data-name="Vector" d="M0,0H28V33H0Z" fill="none" opacity="0"/>
          </g>
        </g>
      </g>
    </g>
  </g>
</svg>
