<svg width="24" height="18" viewBox="0 0 24 18" fill="none" xmlns="http://www.w3.org/2000/svg">
<path fill-rule="evenodd" clip-rule="evenodd" d="M2.4 0.5H21.6C22.92 0.5 24 1.58 24 2.9V14.876C24 16.22 22.92 17.3 21.6 17.3H2.4C1.08 17.3 0 16.22 0 14.9V2.9C0 1.58 1.08 0.5 2.4 0.5ZM21.6 15.572C21.984 15.548 22.272 15.236 22.248 14.876V2.87599C22.248 2.51599 21.96 2.20399 21.6 2.20399H2.376C2.016 2.22799 1.728 2.53999 1.752 2.89999V14.9C1.752 15.26 2.04 15.572 2.4 15.572H21.6Z" fill="#F01414"/>
<path d="M7.34401 14.3959H3.31201V3.40394H7.34401C10.2 3.40394 11.76 5.17994 11.76 8.85194C11.76 12.0199 10.68 14.3719 7.34401 14.3959ZM9.09601 9.06794C9.09601 6.85994 8.85601 5.13194 6.48001 5.13194H5.95201V12.6199H6.88801C8.28001 12.6199 9.09601 11.4919 9.09601 9.06794ZM18.72 8.63594C19.848 8.29994 20.616 7.26794 20.64 6.06794C20.64 5.82794 20.592 3.37994 17.496 3.37994H12.912V14.3719H16.8C17.832 14.3719 21.048 14.3719 21.048 11.2759C21.048 10.5319 20.712 9.06794 18.72 8.63594ZM15.528 5.10794H16.368C17.544 5.10794 18.024 5.51594 18.024 6.42794C18.024 7.14794 17.496 7.74794 16.584 7.74794H15.552V5.10794H15.528ZM16.608 12.6199H15.528V9.78794H16.68C18.048 9.78794 18.384 10.5799 18.384 11.2039C18.384 12.6199 17.04 12.6199 16.608 12.6199Z" fill="#F01414"/>
</svg>
