<svg width="14" height="18" viewBox="0 0 14 18" fill="none" xmlns="http://www.w3.org/2000/svg">
<path d="M13.5 15.75V5.0625L8.4375 0H2.25C1.65326 0 1.08097 0.237053 0.65901 0.65901C0.237053 1.08097 0 1.65326 0 2.25V15.75C0 16.3467 0.237053 16.919 0.65901 17.341C1.08097 17.7629 1.65326 18 2.25 18H11.25C11.8467 18 12.419 17.7629 12.841 17.341C13.2629 16.919 13.5 16.3467 13.5 15.75ZM8.4375 3.375C8.4375 3.82255 8.61529 4.25178 8.93176 4.56824C9.24822 4.88471 9.67745 5.0625 10.125 5.0625H12.375V10.125H1.125V2.25C1.125 1.95163 1.24353 1.66548 1.4545 1.4545C1.66548 1.24353 1.95163 1.125 2.25 1.125H8.4375V3.375ZM1.125 13.5V11.25H3.375V13.5H1.125ZM1.125 14.625H3.375V16.875H2.25C1.95163 16.875 1.66548 16.7565 1.4545 16.5455C1.24353 16.3345 1.125 16.0484 1.125 15.75V14.625ZM4.5 16.875V14.625H7.875V16.875H4.5ZM9 16.875V14.625H12.375V15.75C12.375 16.0484 12.2565 16.3345 12.0455 16.5455C11.8345 16.7565 11.5484 16.875 11.25 16.875H9ZM12.375 13.5H9V11.25H12.375V13.5ZM4.5 13.5V11.25H7.875V13.5H4.5Z" fill="#185F76"/>
</svg>
