<svg width="14" height="18" viewBox="0 0 14 18" fill="none" xmlns="http://www.w3.org/2000/svg">
<path d="M5.68125 13.3706C5.68125 14.9625 5.06475 15.8524 3.96675 15.8524C2.8665 15.8513 2.25 14.9625 2.25 13.3706C2.25 11.7821 2.8665 10.8923 3.96675 10.8923C5.06475 10.8923 5.68125 11.781 5.68125 13.3706ZM3.96675 11.5571C3.357 11.5571 3.03075 12.1905 3.03075 13.3706C3.03075 13.4696 3.03412 13.5653 3.0375 13.6541L4.79137 12.3683C4.64962 11.835 4.3695 11.5583 3.96675 11.5583V11.5571ZM3.14325 14.3786C3.285 14.9096 3.56175 15.1864 3.96675 15.1864C4.57425 15.1864 4.9005 14.553 4.9005 13.3706C4.9005 13.275 4.89712 13.1794 4.89375 13.0894L3.14325 14.3786ZM9.96187 15.0806V15.75H6.58687V15.0806H7.9155V11.8125H7.85925L6.58125 12.6529V11.8789L7.92 10.9946H8.69625V15.0818H9.96187V15.0806Z" fill="#185F76"/>
<path d="M13.5 15.75V5.0625L8.4375 0H2.25C1.65326 0 1.08097 0.237053 0.65901 0.65901C0.237053 1.08097 0 1.65326 0 2.25V15.75C0 16.3467 0.237053 16.919 0.65901 17.341C1.08097 17.7629 1.65326 18 2.25 18H11.25C11.8467 18 12.419 17.7629 12.841 17.341C13.2629 16.919 13.5 16.3467 13.5 15.75ZM8.4375 3.375C8.4375 3.82255 8.61529 4.25178 8.93176 4.56824C9.24822 4.88471 9.67745 5.0625 10.125 5.0625H12.375V15.75C12.375 16.0484 12.2565 16.3345 12.0455 16.5455C11.8345 16.7565 11.5484 16.875 11.25 16.875H2.25C1.95163 16.875 1.66548 16.7565 1.4545 16.5455C1.24353 16.3345 1.125 16.0484 1.125 15.75V2.25C1.125 1.95163 1.24353 1.66548 1.4545 1.4545C1.66548 1.24353 1.95163 1.125 2.25 1.125H8.4375V3.375Z" fill="#185F76"/>
</svg>
