<svg width="16" height="17" viewBox="0 0 16 17" fill="none" xmlns="http://www.w3.org/2000/svg">
<path d="M0 8.5C0 6.37827 0.842855 4.34344 2.34315 2.84315C3.84344 1.34285 5.87827 0.5 8 0.5C10.1217 0.5 12.1566 1.34285 13.6569 2.84315C15.1571 4.34344 16 6.37827 16 8.5C16 10.6217 15.1571 12.6566 13.6569 14.1569C12.1566 15.6571 10.1217 16.5 8 16.5C5.87827 16.5 3.84344 15.6571 2.34315 14.1569C0.842855 12.6566 0 10.6217 0 8.5ZM7.5 1.577C6.83 1.781 6.165 2.397 5.613 3.432C5.43113 3.7761 5.27471 4.13305 5.145 4.5H7.5V1.577ZM4.09 4.5C4.25667 3.96882 4.47087 3.45373 4.73 2.961C4.90291 2.63406 5.10259 2.32199 5.327 2.028C4.088 2.54183 3.02201 3.39962 2.255 4.5H4.09ZM3.508 8C3.538 7.123 3.646 6.282 3.82 5.5H1.674C1.30112 6.28505 1.07861 7.13301 1.018 8H3.508ZM4.847 5.5C4.65032 6.3198 4.53707 7.1574 4.509 8H7.5V5.5H4.847ZM8.5 5.5V8H11.49C11.4623 7.15743 11.3494 6.31983 11.153 5.5H8.5ZM4.51 9C4.53774 9.84257 4.65065 10.6802 4.847 11.5H7.5V9H4.51ZM8.5 9V11.5H11.153C11.34 10.735 11.459 9.892 11.491 9H8.5ZM5.145 12.5C5.283 12.886 5.44 13.244 5.613 13.568C6.165 14.603 6.831 15.218 7.5 15.423V12.5H5.145ZM5.327 14.972C5.10257 14.678 4.90289 14.366 4.73 14.039C4.47088 13.5463 4.25668 13.0312 4.09 12.5H2.255C3.02196 13.6004 4.08797 14.4582 5.327 14.972ZM3.82 11.5C3.63916 10.6781 3.53472 9.84117 3.508 9H1.018C1.08 9.89 1.309 10.733 1.674 11.5H3.82ZM10.673 14.972C11.912 14.4582 12.978 13.6004 13.745 12.5H11.91C11.7433 13.0312 11.5291 13.5463 11.27 14.039C11.0971 14.366 10.8975 14.678 10.673 14.972ZM8.5 12.5V15.423C9.17 15.219 9.835 14.603 10.387 13.568C10.56 13.244 10.717 12.886 10.855 12.5H8.5ZM12.18 11.5H14.326C14.691 10.733 14.92 9.89 14.982 9H12.492C12.4653 9.84117 12.3608 10.6781 12.18 11.5ZM14.982 8C14.9214 7.13301 14.6989 6.28506 14.326 5.5H12.18C12.354 6.282 12.462 7.123 12.492 8H14.982ZM11.27 2.961C11.517 3.425 11.732 3.941 11.91 4.5H13.745C12.978 3.39958 11.912 2.54178 10.673 2.028C10.891 2.312 11.091 2.626 11.27 2.961ZM10.855 4.5C10.7253 4.13305 10.5689 3.77609 10.387 3.432C9.835 2.397 9.17 1.782 8.5 1.577V4.5H10.855Z" fill="black" fill-opacity="0.65"/>
</svg>
