<svg width="12" height="16" viewBox="0 0 12 16" fill="none" xmlns="http://www.w3.org/2000/svg">
<path d="M5 4.25C5 4.34849 4.9806 4.44602 4.94291 4.53701C4.90522 4.62801 4.84997 4.71069 4.78033 4.78033C4.71069 4.84997 4.62801 4.90522 4.53701 4.94291C4.44602 4.9806 4.34849 5 4.25 5C4.15151 5 4.05398 4.9806 3.96299 4.94291C3.87199 4.90522 3.78931 4.84997 3.71967 4.78033C3.65003 4.71069 3.59478 4.62801 3.55709 4.53701C3.5194 4.44602 3.5 4.34849 3.5 4.25C3.5 4.05109 3.57902 3.86032 3.71967 3.71967C3.86032 3.57902 4.05109 3.5 4.25 3.5C4.44891 3.5 4.63968 3.57902 4.78033 3.71967C4.92098 3.86032 5 4.05109 5 4.25ZM4.139 5.792L5.469 6.678L7.323 4.823C7.36011 4.78578 7.40802 4.7612 7.4599 4.75277C7.51178 4.74433 7.565 4.75246 7.612 4.776L9.5 5.75V7.5C9.5 7.63261 9.44732 7.75979 9.35355 7.85355C9.25979 7.94732 9.13261 8 9 8H3C2.86739 8 2.74021 7.94732 2.64645 7.85355C2.55268 7.75979 2.5 7.63261 2.5 7.5V7C2.5 7 4.04 5.726 4.139 5.792ZM3 9C2.86739 9 2.74021 9.05268 2.64645 9.14645C2.55268 9.24021 2.5 9.36739 2.5 9.5C2.5 9.63261 2.55268 9.75979 2.64645 9.85355C2.74021 9.94732 2.86739 10 3 10H9C9.13261 10 9.25979 9.94732 9.35355 9.85355C9.44732 9.75979 9.5 9.63261 9.5 9.5C9.5 9.36739 9.44732 9.24021 9.35355 9.14645C9.25979 9.05268 9.13261 9 9 9H3ZM3 11C2.86739 11 2.74021 11.0527 2.64645 11.1464C2.55268 11.2402 2.5 11.3674 2.5 11.5C2.5 11.6326 2.55268 11.7598 2.64645 11.8536C2.74021 11.9473 2.86739 12 3 12H6C6.13261 12 6.25979 11.9473 6.35355 11.8536C6.44732 11.7598 6.5 11.6326 6.5 11.5C6.5 11.3674 6.44732 11.2402 6.35355 11.1464C6.25979 11.0527 6.13261 11 6 11H3Z" fill="black" fill-opacity="0.65"/>
<path d="M0 2C0 1.46957 0.210714 0.960859 0.585786 0.585786C0.960859 0.210714 1.46957 0 2 0H10C10.5304 0 11.0391 0.210714 11.4142 0.585786C11.7893 0.960859 12 1.46957 12 2V14C12 14.5304 11.7893 15.0391 11.4142 15.4142C11.0391 15.7893 10.5304 16 10 16H2C1.46957 16 0.960859 15.7893 0.585786 15.4142C0.210714 15.0391 0 14.5304 0 14V2ZM10 1H2C1.73478 1 1.48043 1.10536 1.29289 1.29289C1.10536 1.48043 1 1.73478 1 2V14C1 14.2652 1.10536 14.5196 1.29289 14.7071C1.48043 14.8946 1.73478 15 2 15H10C10.2652 15 10.5196 14.8946 10.7071 14.7071C10.8946 14.5196 11 14.2652 11 14V2C11 1.73478 10.8946 1.48043 10.7071 1.29289C10.5196 1.10536 10.2652 1 10 1Z" fill="black" fill-opacity="0.65"/>
</svg>
