<svg width="18" height="18" viewBox="0 0 18 18" fill="none" xmlns="http://www.w3.org/2000/svg">
<path d="M4.5 0C3.98851 0 3.49797 0.189642 3.13629 0.527208C2.77462 0.864773 2.57143 1.32261 2.57143 1.8V2.4H7.71429V1.8C7.71429 1.32261 7.5111 0.864773 7.14942 0.527208C6.78774 0.189642 6.2972 0 5.78571 0H4.5ZM7.71429 3.6V4.8H10.2857V3.6H15.4286V4.6584C15.4286 4.76973 15.4618 4.87887 15.5244 4.9736C15.5871 5.06833 15.6768 5.14492 15.7834 5.1948L16.9341 5.7312C17.2545 5.88076 17.5239 6.11064 17.7122 6.39508C17.9004 6.67952 18.0001 7.00727 18 7.3416V14.4H10.2857V12.6C10.2856 12.5212 10.3021 12.4431 10.3343 12.3702C10.3665 12.2973 10.4138 12.231 10.4734 12.1752L11.5714 11.1516V10.2C11.5714 10.0409 11.5037 9.88826 11.3831 9.77574C11.2626 9.66321 11.0991 9.6 10.9286 9.6H7.07143C6.90093 9.6 6.73742 9.66321 6.61686 9.77574C6.4963 9.88826 6.42857 10.0409 6.42857 10.2V11.1516L7.52657 12.1752C7.58623 12.231 7.63352 12.2973 7.66573 12.3702C7.69794 12.4431 7.71444 12.5212 7.71429 12.6V14.4H0V7.3416C1.2105e-05 7.00714 0.0998647 6.6793 0.288358 6.39485C0.476851 6.1104 0.746529 5.88059 1.06714 5.7312L2.21657 5.1948C2.32322 5.14492 2.41289 5.06833 2.47556 4.9736C2.53823 4.87887 2.57142 4.76973 2.57143 4.6584V3.6H7.71429ZM0 15.6V16.2C0 16.6774 0.203188 17.1352 0.564866 17.4728C0.926543 17.8104 1.41708 18 1.92857 18H5.78571C6.2972 18 6.78774 17.8104 7.14942 17.4728C7.5111 17.1352 7.71429 16.6774 7.71429 16.2V15.6H0ZM10.2857 15.6V16.2C10.2857 16.6774 10.4889 17.1352 10.8506 17.4728C11.2123 17.8104 11.7028 18 12.2143 18H16.0714C16.5829 18 17.0735 17.8104 17.4351 17.4728C17.7968 17.1352 18 16.6774 18 16.2V15.6H10.2857ZM15.4286 2.4H10.2857V1.8C10.2857 1.32261 10.4889 0.864773 10.8506 0.527208C11.2123 0.189642 11.7028 0 12.2143 0H13.5C14.0115 0 14.502 0.189642 14.8637 0.527208C15.2254 0.864773 15.4286 1.32261 15.4286 1.8V2.4Z" fill="#185F76"/>
</svg>
