<svg xmlns="http://www.w3.org/2000/svg" width="19.458" height="20" viewBox="0 0 19.458 20">
  <path id="Vector" d="M9.729,6A4,4,0,1,1,6.9,7.172,4,4,0,0,1,9.729,6Zm0,2a2,2,0,1,0,1.414.586A2,2,0,0,0,9.729,8Zm-2,12a.506.506,0,0,1-.5-.42l-.37-2.65a6.945,6.945,0,0,1-1.69-.99l-2.49,1.01a.5.5,0,0,1-.61-.22l-2-3.46a.493.493,0,0,1,.12-.64L2.3,10.97,2.229,10,2.3,9,.189,7.37a.493.493,0,0,1-.12-.64l2-3.46a.492.492,0,0,1,.61-.22l2.49,1a7.249,7.249,0,0,1,1.69-.98L7.229.42a.506.506,0,0,1,.5-.42h4a.506.506,0,0,1,.5.42l.37,2.65a7.249,7.249,0,0,1,1.69.98l2.49-1a.492.492,0,0,1,.61.22l2,3.46a.493.493,0,0,1-.12.64L17.159,9l.07,1-.07,1,2.11,1.63a.493.493,0,0,1,.12.64l-2,3.46a.492.492,0,0,1-.61.22l-2.49-1a7.249,7.249,0,0,1-1.69.98l-.37,2.65a.506.506,0,0,1-.5.42h-4ZM8.979,2l-.37,2.61a5.492,5.492,0,0,0-3.03,1.78L3.169,5.35l-.75,1.3L4.529,8.2a5.55,5.55,0,0,0,0,3.6l-2.12,1.56.75,1.3,2.43-1.04A5.444,5.444,0,0,0,8.6,15.38L8.969,18h1.52l.37-2.61a5.518,5.518,0,0,0,3.01-1.77l2.43,1.04.75-1.3-2.12-1.55a5.58,5.58,0,0,0,0-3.61l2.11-1.55-.75-1.3-2.41,1.04a5.42,5.42,0,0,0-3.03-1.77L10.479,2h-1.5Z" transform="translate(0 0)" fill="#f7f7f7"/>
</svg>
