<svg width="12" height="15" viewBox="0 0 12 15" fill="none" xmlns="http://www.w3.org/2000/svg">
<path fill-rule="evenodd" clip-rule="evenodd" d="M5.82322 0.17677L2.92677 3.07322C2.76928 3.23071 2.88083 3.49999 3.10355 3.49999H5.25001C5.25001 3.5 5.25001 3.5 5.25001 3.5V9.24998C5.25001 9.66419 5.5858 9.99998 6.00001 9.99998C6.41423 9.99998 6.75001 9.66419 6.75001 9.24998V3.5C6.75001 3.5 6.75001 3.5 6.75001 3.49999H8.8964C9.1192 3.49999 9.2307 3.23071 9.0732 3.07322L6.17677 0.176769C6.07914 0.0791382 5.92085 0.0791385 5.82322 0.17677ZM1.75002 6.50005C1.61195 6.50005 1.50002 6.61197 1.50002 6.75005V13.25C1.50002 13.3881 1.61195 13.5 1.75002 13.5H10.25C10.3881 13.5 10.5 13.3881 10.5 13.25V6.75005C10.5 6.61197 10.3881 6.50005 10.25 6.50005H9.25C8.8358 6.50005 8.5 6.16426 8.5 5.75005C8.5 5.33583 8.8358 5.00005 9.25 5.00005H10.25C11.2165 5.00005 12 5.78355 12 6.75005V13.25C12 14.2165 11.2165 15 10.25 15H1.75002C0.783523 15 2.28882e-05 14.2165 2.28882e-05 13.25V6.75005C2.28882e-05 5.78355 0.783523 5.00005 1.75002 5.00005H2.75002C3.16424 5.00005 3.50002 5.33583 3.50002 5.75005C3.50002 6.16426 3.16424 6.50005 2.75002 6.50005H1.75002Z" fill="#24292E"/>
</svg>
